<svg width="115" height="22" viewBox="0 0 115 22" fill="none" xmlns="http://www.w3.org/2000/svg">
<rect x="0.5" y="0.5" width="114" height="21" rx="10.5" stroke="#EAEAEA"/>
<path d="M10.5993 15.144C9.90325 15.144 9.28325 14.972 8.73925 14.628C8.19525 14.284 7.76725 13.788 7.45525 13.14C7.15125 12.484 6.99925 11.704 6.99925 10.8C6.99925 9.896 7.15125 9.12 7.45525 8.472C7.76725 7.816 8.19525 7.316 8.73925 6.972C9.28325 6.628 9.90325 6.456 10.5993 6.456C11.2953 6.456 11.9153 6.628 12.4593 6.972C13.0033 7.316 13.4273 7.816 13.7313 8.472C14.0433 9.12 14.1993 9.896 14.1993 10.8C14.1993 11.704 14.0433 12.484 13.7313 13.14C13.4273 13.788 13.0033 14.284 12.4593 14.628C11.9153 14.972 11.2953 15.144 10.5993 15.144ZM10.5993 13.5C11.1113 13.5 11.5113 13.28 11.7993 12.84C12.0953 12.4 12.2433 11.72 12.2433 10.8C12.2433 9.88 12.0953 9.2 11.7993 8.76C11.5113 8.32 11.1113 8.1 10.5993 8.1C10.0953 8.1 9.69525 8.32 9.39925 8.76C9.11125 9.2 8.96725 9.88 8.96725 10.8C8.96725 11.72 9.11125 12.4 9.39925 12.84C9.69525 13.28 10.0953 13.5 10.5993 13.5ZM21.6204 15.06C20.9964 15.06 20.4364 14.924 19.9404 14.652C19.4524 14.38 19.0684 14 18.7884 13.512C18.5084 13.016 18.3684 12.46 18.3684 11.844C18.3684 11.228 18.5084 10.676 18.7884 10.188C19.0684 9.7 19.4524 9.32 19.9404 9.048C20.4364 8.776 20.9964 8.64 21.6204 8.64C22.1644 8.64 22.6484 8.748 23.0724 8.964C23.5044 9.172 23.8444 9.48 24.0924 9.888L23.4564 10.32C23.2484 10.008 22.9844 9.776 22.6644 9.624C22.3444 9.464 21.9964 9.384 21.6204 9.384C21.1644 9.384 20.7524 9.488 20.3844 9.696C20.0244 9.896 19.7404 10.184 19.5324 10.56C19.3324 10.936 19.2324 11.364 19.2324 11.844C19.2324 12.332 19.3324 12.764 19.5324 13.14C19.7404 13.508 20.0244 13.796 20.3844 14.004C20.7524 14.204 21.1644 14.304 21.6204 14.304C21.9964 14.304 22.3444 14.228 22.6644 14.076C22.9844 13.924 23.2484 13.692 23.4564 13.38L24.0924 13.812C23.8444 14.22 23.5044 14.532 23.0724 14.748C22.6404 14.956 22.1564 15.06 21.6204 15.06ZM28.2407 15.06C27.6327 15.06 27.0847 14.924 26.5967 14.652C26.1087 14.372 25.7247 13.988 25.4447 13.5C25.1647 13.012 25.0247 12.46 25.0247 11.844C25.0247 11.228 25.1647 10.676 25.4447 10.188C25.7247 9.7 26.1087 9.32 26.5967 9.048C27.0847 8.776 27.6327 8.64 28.2407 8.64C28.8487 8.64 29.3967 8.776 29.8847 9.048C30.3727 9.32 30.7527 9.7 31.0247 10.188C31.3047 10.676 31.4447 11.228 31.4447 11.844C31.4447 12.46 31.3047 13.012 31.0247 13.5C30.7527 13.988 30.3727 14.372 29.8847 14.652C29.3967 14.924 28.8487 15.06 28.2407 15.06ZM28.2407 14.304C28.6887 14.304 29.0887 14.204 29.4407 14.004C29.8007 13.796 30.0807 13.504 30.2807 13.128C30.4807 12.752 30.5807 12.324 30.5807 11.844C30.5807 11.364 30.4807 10.936 30.2807 10.56C30.0807 10.184 29.8007 9.896 29.4407 9.696C29.0887 9.488 28.6887 9.384 28.2407 9.384C27.7927 9.384 27.3887 9.488 27.0287 9.696C26.6767 9.896 26.3967 10.184 26.1887 10.56C25.9887 10.936 25.8887 11.364 25.8887 11.844C25.8887 12.324 25.9887 12.752 26.1887 13.128C26.3967 13.504 26.6767 13.796 27.0287 14.004C27.3887 14.204 27.7927 14.304 28.2407 14.304ZM33.1841 6.096H34.0361V15H33.1841V6.096ZM38.9868 15.06C38.3788 15.06 37.8308 14.924 37.3428 14.652C36.8548 14.372 36.4708 13.988 36.1908 13.5C35.9108 13.012 35.7708 12.46 35.7708 11.844C35.7708 11.228 35.9108 10.676 36.1908 10.188C36.4708 9.7 36.8548 9.32 37.3428 9.048C37.8308 8.776 38.3788 8.64 38.9868 8.64C39.5948 8.64 40.1428 8.776 40.6308 9.048C41.1188 9.32 41.4988 9.7 41.7708 10.188C42.0508 10.676 42.1908 11.228 42.1908 11.844C42.1908 12.46 42.0508 13.012 41.7708 13.5C41.4988 13.988 41.1188 14.372 40.6308 14.652C40.1428 14.924 39.5948 15.06 38.9868 15.06ZM38.9868 14.304C39.4348 14.304 39.8348 14.204 40.1868 14.004C40.5468 13.796 40.8268 13.504 41.0268 13.128C41.2268 12.752 41.3268 12.324 41.3268 11.844C41.3268 11.364 41.2268 10.936 41.0268 10.56C40.8268 10.184 40.5468 9.896 40.1868 9.696C39.8348 9.488 39.4348 9.384 38.9868 9.384C38.5388 9.384 38.1348 9.488 37.7748 9.696C37.4228 9.896 37.1428 10.184 36.9348 10.56C36.7348 10.936 36.6348 11.364 36.6348 11.844C36.6348 12.324 36.7348 12.752 36.9348 13.128C37.1428 13.504 37.4228 13.796 37.7748 14.004C38.1348 14.204 38.5388 14.304 38.9868 14.304ZM44.7462 9.924C44.9462 9.5 45.2422 9.18 45.6342 8.964C46.0342 8.748 46.5262 8.64 47.1102 8.64V9.468L46.9062 9.456C46.2422 9.456 45.7222 9.66 45.3462 10.068C44.9702 10.476 44.7822 11.048 44.7822 11.784V15H43.9302V8.688H44.7462V9.924ZM50.3917 15.06C49.8797 15.06 49.3877 14.988 48.9157 14.844C48.4517 14.692 48.0877 14.504 47.8237 14.28L48.2077 13.608C48.4717 13.816 48.8037 13.988 49.2037 14.124C49.6037 14.252 50.0197 14.316 50.4517 14.316C51.0277 14.316 51.4517 14.228 51.7237 14.052C52.0037 13.868 52.1437 13.612 52.1437 13.284C52.1437 13.052 52.0677 12.872 51.9157 12.744C51.7637 12.608 51.5717 12.508 51.3397 12.444C51.1077 12.372 50.7997 12.304 50.4157 12.24C49.9037 12.144 49.4917 12.048 49.1797 11.952C48.8677 11.848 48.5997 11.676 48.3757 11.436C48.1597 11.196 48.0517 10.864 48.0517 10.44C48.0517 9.912 48.2717 9.48 48.7117 9.144C49.1517 8.808 49.7637 8.64 50.5477 8.64C50.9557 8.64 51.3637 8.696 51.7717 8.808C52.1797 8.912 52.5157 9.052 52.7797 9.228L52.4077 9.912C51.8877 9.552 51.2677 9.372 50.5477 9.372C50.0037 9.372 49.5917 9.468 49.3117 9.66C49.0397 9.852 48.9037 10.104 48.9037 10.416C48.9037 10.656 48.9797 10.848 49.1317 10.992C49.2917 11.136 49.4877 11.244 49.7197 11.316C49.9517 11.38 50.2717 11.448 50.6797 11.52C51.1837 11.616 51.5877 11.712 51.8917 11.808C52.1957 11.904 52.4557 12.068 52.6717 12.3C52.8877 12.532 52.9957 12.852 52.9957 13.26C52.9957 13.812 52.7637 14.252 52.2997 14.58C51.8437 14.9 51.2077 15.06 50.3917 15.06ZM59.9194 8.64C60.7434 8.64 61.3754 8.848 61.8154 9.264C62.2554 9.672 62.4754 10.28 62.4754 11.088V15H61.6594V14.016C61.4674 14.344 61.1834 14.6 60.8074 14.784C60.4394 14.968 59.9994 15.06 59.4874 15.06C58.7834 15.06 58.2234 14.892 57.8074 14.556C57.3914 14.22 57.1834 13.776 57.1834 13.224C57.1834 12.688 57.3754 12.256 57.7594 11.928C58.1514 11.6 58.7714 11.436 59.6194 11.436H61.6234V11.052C61.6234 10.508 61.4714 10.096 61.1674 9.816C60.8634 9.528 60.4194 9.384 59.8354 9.384C59.4354 9.384 59.0514 9.452 58.6834 9.588C58.3154 9.716 57.9994 9.896 57.7354 10.128L57.3514 9.492C57.6714 9.22 58.0554 9.012 58.5034 8.868C58.9514 8.716 59.4234 8.64 59.9194 8.64ZM59.6194 14.388C60.0994 14.388 60.5114 14.28 60.8554 14.064C61.1994 13.84 61.4554 13.52 61.6234 13.104V12.072H59.6434C58.5634 12.072 58.0234 12.448 58.0234 13.2C58.0234 13.568 58.1634 13.86 58.4434 14.076C58.7234 14.284 59.1154 14.388 59.6194 14.388ZM69.9764 8.688L67.1684 15H66.2924L63.4964 8.688H64.3844L66.7484 14.064L69.1364 8.688H69.9764ZM73.1968 8.64C74.0208 8.64 74.6528 8.848 75.0928 9.264C75.5328 9.672 75.7528 10.28 75.7528 11.088V15H74.9368V14.016C74.7448 14.344 74.4608 14.6 74.0848 14.784C73.7168 14.968 73.2768 15.06 72.7648 15.06C72.0608 15.06 71.5008 14.892 71.0848 14.556C70.6688 14.22 70.4608 13.776 70.4608 13.224C70.4608 12.688 70.6528 12.256 71.0368 11.928C71.4288 11.6 72.0488 11.436 72.8968 11.436H74.9008V11.052C74.9008 10.508 74.7488 10.096 74.4448 9.816C74.1408 9.528 73.6968 9.384 73.1128 9.384C72.7128 9.384 72.3288 9.452 71.9608 9.588C71.5928 9.716 71.2768 9.896 71.0128 10.128L70.6288 9.492C70.9488 9.22 71.3328 9.012 71.7808 8.868C72.2288 8.716 72.7008 8.64 73.1968 8.64ZM72.8968 14.388C73.3768 14.388 73.7888 14.28 74.1328 14.064C74.4768 13.84 74.7328 13.52 74.9008 13.104V12.072H72.9208C71.8408 12.072 71.3008 12.448 71.3008 13.2C71.3008 13.568 71.4408 13.86 71.7208 14.076C72.0008 14.284 72.3928 14.388 72.8968 14.388ZM78.0669 8.688H78.9189V15H78.0669V8.688ZM78.4989 7.308C78.3229 7.308 78.1749 7.248 78.0549 7.128C77.9349 7.008 77.8749 6.864 77.8749 6.696C77.8749 6.536 77.9349 6.396 78.0549 6.276C78.1749 6.156 78.3229 6.096 78.4989 6.096C78.6749 6.096 78.8229 6.156 78.9429 6.276C79.0629 6.388 79.1229 6.524 79.1229 6.684C79.1229 6.86 79.0629 7.008 78.9429 7.128C78.8229 7.248 78.6749 7.308 78.4989 7.308ZM81.2896 6.096H82.1416V15H81.2896V6.096ZM86.7202 8.64C87.5442 8.64 88.1762 8.848 88.6162 9.264C89.0562 9.672 89.2762 10.28 89.2762 11.088V15H88.4602V14.016C88.2682 14.344 87.9842 14.6 87.6082 14.784C87.2402 14.968 86.8002 15.06 86.2882 15.06C85.5842 15.06 85.0242 14.892 84.6082 14.556C84.1922 14.22 83.9842 13.776 83.9842 13.224C83.9842 12.688 84.1762 12.256 84.5602 11.928C84.9522 11.6 85.5722 11.436 86.4202 11.436H88.4242V11.052C88.4242 10.508 88.2722 10.096 87.9682 9.816C87.6642 9.528 87.2202 9.384 86.6362 9.384C86.2362 9.384 85.8522 9.452 85.4842 9.588C85.1162 9.716 84.8002 9.896 84.5362 10.128L84.1522 9.492C84.4722 9.22 84.8562 9.012 85.3042 8.868C85.7522 8.716 86.2242 8.64 86.7202 8.64ZM86.4202 14.388C86.9002 14.388 87.3122 14.28 87.6562 14.064C88.0002 13.84 88.2562 13.52 88.4242 13.104V12.072H86.4442C85.3642 12.072 84.8242 12.448 84.8242 13.2C84.8242 13.568 84.9642 13.86 85.2442 14.076C85.5242 14.284 85.9162 14.388 86.4202 14.388ZM94.8423 8.64C95.4343 8.64 95.9703 8.776 96.4503 9.048C96.9303 9.312 97.3063 9.688 97.5783 10.176C97.8503 10.664 97.9863 11.22 97.9863 11.844C97.9863 12.468 97.8503 13.024 97.5783 13.512C97.3063 14 96.9303 14.38 96.4503 14.652C95.9703 14.924 95.4343 15.06 94.8423 15.06C94.3143 15.06 93.8383 14.948 93.4143 14.724C92.9983 14.5 92.6623 14.176 92.4063 13.752V15H91.5903V6.096H92.4423V9.888C92.7063 9.48 93.0423 9.172 93.4503 8.964C93.8663 8.748 94.3303 8.64 94.8423 8.64ZM94.7823 14.304C95.2223 14.304 95.6223 14.204 95.9823 14.004C96.3423 13.796 96.6223 13.504 96.8223 13.128C97.0303 12.752 97.1343 12.324 97.1343 11.844C97.1343 11.364 97.0303 10.936 96.8223 10.56C96.6223 10.184 96.3423 9.896 95.9823 9.696C95.6223 9.488 95.2223 9.384 94.7823 9.384C94.3343 9.384 93.9303 9.488 93.5703 9.696C93.2183 9.896 92.9383 10.184 92.7303 10.56C92.5303 10.936 92.4303 11.364 92.4303 11.844C92.4303 12.324 92.5303 12.752 92.7303 13.128C92.9383 13.504 93.2183 13.796 93.5703 14.004C93.9303 14.204 94.3343 14.304 94.7823 14.304ZM99.7232 6.096H100.575V15H99.7232V6.096ZM108.442 12.108H103.162C103.21 12.764 103.462 13.296 103.918 13.704C104.374 14.104 104.95 14.304 105.646 14.304C106.038 14.304 106.398 14.236 106.726 14.1C107.054 13.956 107.338 13.748 107.578 13.476L108.058 14.028C107.778 14.364 107.426 14.62 107.002 14.796C106.586 14.972 106.126 15.06 105.622 15.06C104.974 15.06 104.398 14.924 103.894 14.652C103.398 14.372 103.01 13.988 102.73 13.5C102.45 13.012 102.31 12.46 102.31 11.844C102.31 11.228 102.442 10.676 102.706 10.188C102.978 9.7 103.346 9.32 103.81 9.048C104.282 8.776 104.81 8.64 105.394 8.64C105.978 8.64 106.502 8.776 106.966 9.048C107.43 9.32 107.794 9.7 108.058 10.188C108.322 10.668 108.454 11.22 108.454 11.844L108.442 12.108ZM105.394 9.372C104.786 9.372 104.274 9.568 103.858 9.96C103.45 10.344 103.218 10.848 103.162 11.472H107.638C107.582 10.848 107.346 10.344 106.93 9.96C106.522 9.568 106.01 9.372 105.394 9.372Z" fill="#505050"/>
</svg>
